<svg xmlns="http://www.w3.org/2000/svg" xmlns:svg="http://www.w3.org/2000/svg" id="svg2004" width="200mm" height="200mm" version="1.1" viewBox="0 0 200 200"><metadata id="metadata2001"/><g id="layer1"><g id="g2068" transform="matrix(4.4051522,0,0,4.4051522,-599.92744,-478.27288)"><circle id="circle1862" cx="158.888" cy="131.272" r="22.701" style="fill:gray;fill-opacity:1;stroke-width:.799999;stroke-linecap:round;stroke-linejoin:round"/><circle id="circle1864" cx="158.888" cy="131.272" r="20.302" style="fill:#1a1a1a;fill-opacity:1;stroke-width:.715458;stroke-linecap:round;stroke-linejoin:round"/><g style="fill:#fff" id="g1876" transform="translate(56.266803)"><g style="font-style:normal;font-variant:normal;font-weight:400;font-stretch:normal;font-size:13.4182px;line-height:1.25;font-family:'Astro 867';-inkscape-font-specification:'Astro 867, ';fill:#fff;fill-opacity:1;stroke-width:.335457" id="g1870" aria-label="SD" transform="matrix(0.91967453,0,0,1.0873412,17.25006,-1.2551095)"><path id="path1866" d="m 90.764165,123.3049 q -1.504465,0 -2.561656,-1.01653 -1.057192,-1.0572 -1.057192,-2.56166 0,-1.4638 1.057192,-2.521 1.057191,-1.09785 2.561656,-1.09785 h 7.928936 v 2.88695 h -7.928936 q -0.731902,0 -0.731902,0.7319 0,0.28463 0.203306,0.48793 0.203306,0.20331 0.528596,0.20331 h 4.310088 q 1.463804,0 2.520995,1.09785 1.057192,1.05719 1.057192,2.521 0,1.50446 -1.057192,2.56165 -1.057191,1.0572 -2.520995,1.0572 h -7.928936 v -2.92761 h 7.928936 q 0.243967,0 0.447273,-0.20331 0.243968,-0.2033 0.243968,-0.48793 0,-0.28463 -0.243968,-0.48794 -0.203306,-0.24396 -0.447273,-0.24396 z" style="font-style:normal;font-variant:normal;font-weight:400;font-stretch:normal;font-family:'Astro 867';-inkscape-font-specification:'Astro 867, ';fill:#fff;fill-opacity:1;stroke-width:.335457"/><path id="path1868" d="m 102.0273,124.7687 h 2.88695 q 1.17917,0 2.03306,-0.81323 0.85388,-0.85388 0.85388,-2.07372 0,-1.17917 -0.85388,-2.03306 -0.85389,-0.85388 -2.03306,-0.85388 h -2.88695 z m -2.886944,2.88695 q 0,-2.88695 0,-5.73324 0,-2.88694 0,-5.81455 h 5.773894 q 2.35835,0 4.02546,1.70777 1.70777,1.70777 1.70777,4.06612 0,2.39901 -1.70777,4.10679 -1.66711,1.66711 -4.02546,1.66711 z" style="font-style:normal;font-variant:normal;font-weight:400;font-stretch:normal;font-family:'Astro 867';-inkscape-font-specification:'Astro 867, ';fill:#fff;fill-opacity:1;stroke-width:.335457"/></g><g style="font-style:normal;font-variant:normal;font-weight:400;font-stretch:normal;font-size:19.8752px;line-height:1.25;font-family:Slashed;-inkscape-font-specification:Slashed;fill:#fff;fill-opacity:1;stroke-width:.496885" id="g1874" aria-label="R" transform="matrix(0.91809684,0,0,1.0892097,17.25006,-1.2551095)"><path id="path1872" d="m 75.157205,124.57462 v -0.85463 q 0,-1.94777 0.03975,-1.94777 0.05962,0 2.881904,2.82228 l 2.822278,2.84215 q -0.95401,-0.0199 -2.862029,-0.0199 -1.888144,0 -2.842153,-0.0199 z m -0.01987,-4.78992 v -3.87566 h 4.332794 q 4.392419,0 4.750172,0.0994 1.768893,0.55651 2.305524,2.14652 0.139126,0.37763 0.139126,0.91426 v 0.35776 q -0.01987,0.5565 -0.05962,0.75526 -0.03975,0.19875 -0.238503,0.59625 -0.477005,0.99376 -1.53039,1.49064 -0.775133,0.37763 -2.106772,0.37763 h -0.814883 q 2.404899,2.38502 4.789924,4.78992 h -3.915415 q -3.816038,-3.83591 -7.651952,-7.65195 z" style="font-style:normal;font-variant:normal;font-weight:400;font-stretch:normal;font-family:Slashed;-inkscape-font-specification:Slashed;fill:#fff;fill-opacity:1;stroke-width:.496885"/></g></g></g></g></svg>